<?xml version="1.0" encoding="utf-8"?>
<!-- Generator: Adobe Illustrator 19.0.0, SVG Export Plug-In . SVG Version: 6.00 Build 0)  -->
<svg xmlns:xlink="http://www.w3.org/1999/xlink" version="1.1" id="Ebene_1" xmlns="http://www.w3.org/2000/svg" x="0px"
     y="0px"
     viewBox="-329 131 300 300" style="enable-background:new -329 131 300 300;" xml:space="preserve">
<style type="text/css">
	.st0{clip-path:url(#SVGID_2_);}
	.st1{opacity:0.9;}
	.st2{fill:#434343;}
	.st3{fill:#FFFFFF;}
</style>
    <g>
	<g>
		<defs>
			<rect id="SVGID_1_" x="-815.1" y="-147.7" width="2277.3" height="1610.3"/>
		</defs>
        <clipPath id="SVGID_2_">
			<use xlink:href="#SVGID_1_" style="overflow:visible;"/>
		</clipPath>
        <g transform="matrix(1.3333 0 0 -1.3333 0 1122.5) translate(-1485 -3205) scale(5.2)" class="st0">
			<g>
				<defs>
					<rect id="SVGID_3_" x="116.2" y="594.5" width="286.9" height="286.9"/>
				</defs>
                <clipPath id="SVGID_4_">
					<use xlink:href="#SVGID_3_" style="overflow:visible;"/>
				</clipPath>
			</g>
		</g>
	</g>
</g>
    <g class="st1">
	<g transform="translate(438.52 660.21)">
		<path class="st2" d="M-474.1-279.4c0,24.1-19.5,43.6-43.6,43.6h-199.7c-24.1,0-43.6-19.5-43.6-43.6v-199.7
			c0-24.1,19.5-43.6,43.6-43.6h199.7c24.1,0,43.6,19.5,43.6,43.6V-279.4z"/>
	</g>
</g>
    <g>
	<path class="st3" d="M-103.1,224c-4.4-1.6-9.1-2.6-13.2-2.6c-9.3,0-14.8,5.2-14.8,18.4v7.8h29.6l0.5,29.8h-30.1v98.8h-38.1v-98.8
		H-194v-28.3l24.8-1.3v-7c0-27.2,12.7-49.5,47.4-49.5c10.6,0,20,2.6,25.7,4.7L-103.1,224z"/>
</g>
</svg>
