<?xml version="1.0" encoding="utf-8"?>
<!-- Generator: Adobe Illustrator 19.0.0, SVG Export Plug-In . SVG Version: 6.00 Build 0)  -->
<svg xmlns:xlink="http://www.w3.org/1999/xlink" version="1.1" id="Ebene_1" xmlns="http://www.w3.org/2000/svg" x="0px"
     y="0px"
     viewBox="-229 231 100 100" style="enable-background:new -229 231 100 100;" xml:space="preserve">
<style type="text/css">
	.st0{fill:#992E2F;}
	.st1{fill:#FFFFFF;}
</style>
    <path class="st0" d="M-149.3,307c0,3.4-3,6.1-6.7,6.1H-206c-3.7,0-6.7-2.7-6.7-6.1v-51c0-3.4,3-6.1,6.7-6.1h50.1
	c3.7,0,6.7,2.7,6.7,6.1V307z"/>
    <g>
	<path class="st1" d="M-165.3,269.1c-0.9-0.3-1.9-0.5-2.7-0.5c-1.9,0-3.1,1.1-3.1,3.8v1.6h6.1l0.1,6.2h-6.2v20.4h-7.9v-20.4h-5.1v-6
		l5.1-0.1v-1.4c0-5.6,2.6-10.2,9.8-10.2c2.2,0,4.1,0.5,5.3,1L-165.3,269.1z"/>
</g>
</svg>
