<?xml version="1.0" encoding="utf-8"?>
<!-- Generator: Adobe Illustrator 19.0.0, SVG Export Plug-In . SVG Version: 6.00 Build 0)  -->
<svg xmlns:xlink="http://www.w3.org/1999/xlink" version="1.1" id="Ebene_1" xmlns="http://www.w3.org/2000/svg" x="0px"
     y="0px"
     viewBox="0 0 100 100" style="enable-background:new 0 0 100 100;" xml:space="preserve">
<style type="text/css">
	.st0{fill:#FFFFFF;}
	.st1{fill:none;stroke:#FFFFFF;stroke-miterlimit:10;}
	.st2{fill:none;stroke:#000000;stroke-miterlimit:10;}
	.st3{fill:#992E2F;}
</style>
    <rect id="XMLID_13_" x="17" y="69.2" width="14" height="4.4"/>
    <polygon id="XMLID_34_" class="st0" points="31,38 31,77 16.6,77 9.8,69.3 9.8,26.4 16.6,38 "/>
    <line id="XMLID_32_" class="st1" x1="19.9" y1="38.3" x2="13.7" y2="28.4"/>
    <line id="XMLID_31_" class="st1" x1="27" y1="38.3" x2="21" y2="28.4"/>
    <line id="XMLID_30_" class="st1" x1="23.3" y1="38.3" x2="17.2" y2="28.6"/>
    <line id="XMLID_29_" class="st1" x1="30.6" y1="38.3" x2="22.9" y2="26"/>
    <path id="XMLID_17_" class="st2" d="M16.5,77"/>
    <path id="XMLID_16_" class="st2" d="M16.5,38"/>
    <rect id="XMLID_15_" x="17" y="40.8" class="st3" width="14" height="4.4"/>
    <polygon id="XMLID_14_" class="st3" points="16,45.2 13.2,41.7 13.2,38.3 16,40.8 "/>
    <polygon id="XMLID_12_" class="st3" points="16,73.6 13.2,70.2 13.2,66.7 16,69.2 "/>
    <rect id="XMLID_22_" x="17" y="69.2" class="st3" width="14" height="4.4"/>
    <rect id="XMLID_18_" x="48" y="69.2" width="14" height="4.4"/>
    <polygon id="XMLID_11_" class="st0" points="62,38 62,77 47.6,77 40.8,69.3 40.8,26.4 47.6,38 "/>
    <line id="XMLID_10_" class="st1" x1="50.9" y1="38.3" x2="44.7" y2="28.4"/>
    <line id="XMLID_9_" class="st1" x1="58" y1="38.3" x2="52" y2="28.4"/>
    <line id="XMLID_8_" class="st1" x1="54.3" y1="38.3" x2="48.2" y2="28.6"/>
    <line id="XMLID_7_" class="st1" x1="61.6" y1="38.3" x2="53.9" y2="26"/>
    <path id="XMLID_6_" class="st2" d="M47.5,77"/>
    <path id="XMLID_5_" class="st2" d="M47.5,38"/>
    <rect id="XMLID_4_" x="48" y="40.8" class="st3" width="14" height="4.4"/>
    <polygon id="XMLID_3_" class="st3" points="47,45.2 44.2,41.7 44.2,38.3 47,40.8 "/>
    <polygon id="XMLID_2_" class="st3" points="47,73.6 44.2,70.2 44.2,66.7 47,69.2 "/>
    <rect id="XMLID_1_" x="48" y="69.2" class="st3" width="14" height="4.4"/>
    <rect id="XMLID_36_" x="78" y="69.2" width="14" height="4.4"/>
    <polygon id="XMLID_35_" class="st0" points="92,38 92,77 77.6,77 70.8,69.3 70.8,26.4 77.6,38 "/>
    <line id="XMLID_33_" class="st1" x1="80.9" y1="38.3" x2="74.7" y2="28.4"/>
    <line id="XMLID_28_" class="st1" x1="88" y1="38.3" x2="82" y2="28.4"/>
    <line id="XMLID_27_" class="st1" x1="84.3" y1="38.3" x2="78.2" y2="28.6"/>
    <line id="XMLID_26_" class="st1" x1="91.6" y1="38.3" x2="83.9" y2="26"/>
    <path id="XMLID_25_" class="st2" d="M77.5,77"/>
    <path id="XMLID_24_" class="st2" d="M77.5,38"/>
    <rect id="XMLID_23_" x="78" y="40.8" class="st3" width="14" height="4.4"/>
    <polygon id="XMLID_21_" class="st3" points="77,45.2 74.2,41.7 74.2,38.3 77,40.8 "/>
    <polygon id="XMLID_20_" class="st3" points="77,73.6 74.2,70.2 74.2,66.7 77,69.2 "/>
    <rect id="XMLID_19_" x="78" y="69.2" class="st3" width="14" height="4.4"/>
</svg>
