<?xml version="1.0" encoding="utf-8"?>
<!-- Generator: Adobe Illustrator 19.0.0, SVG Export Plug-In . SVG Version: 6.00 Build 0)  -->
<svg xmlns:xlink="http://www.w3.org/1999/xlink" version="1.1" id="Ebene_1" xmlns="http://www.w3.org/2000/svg" x="0px"
     y="0px"
     viewBox="0 0 100 100" style="enable-background:new 0 0 100 100;" xml:space="preserve">
<style type="text/css">
	.st0{fill:none;stroke:#FFFFFF;stroke-width:7;stroke-miterlimit:10;}
	.st1{fill:#FFFFFF;}
</style>
    <g id="XMLID_6_">
	<path id="XMLID_17_" class="st0" d="M65,21c3.2,1.5,6,3.6,8.5,6c5.6,5.6,9,13.2,9,21.7c0,17-13.8,30.7-30.7,30.7S21,65.8,21,48.8
		c0-8.8,3.7-16.7,9.6-22.4c2.5-2.4,5.4-4.3,8.6-5.7"/>
</g>
    <path id="XMLID_10_" class="st1"
          d="M56,10.3v30c0,1.9-1.6,3.5-3.5,3.5S49,42.2,49,40.3v-30c0-1.9,1.6-3.5,3.5-3.5S56,8.4,56,10.3z"
    />
</svg>
