<?xml version="1.0" encoding="utf-8"?>
<!-- Generator: Adobe Illustrator 19.0.0, SVG Export Plug-In . SVG Version: 6.00 Build 0)  -->
<svg xmlns:xlink="http://www.w3.org/1999/xlink" version="1.1" id="Ebene_1" xmlns="http://www.w3.org/2000/svg" x="0px"
     y="0px"
     viewBox="0 0 100 100" style="enable-background:new 0 0 100 100;" xml:space="preserve">
<style type="text/css">
	.st0{fill:#CCCCCC;}
	.st1{fill:none;stroke:#333333;stroke-miterlimit:10;}
	.st2{fill:#FFFFFF;}
	.st3{fill:none;stroke:#333333;stroke-width:0.5;stroke-miterlimit:10;}
</style>
    <g id="XMLID_4_">
	<path id="XMLID_18_" class="st0" d="M64.4,78.1c0,1.1-0.9,2-2,2H34.6c-1.1,0-2-0.9-2-2V22.9c0-1.1,0.9-2,2-2h27.8c1.1,0,2,0.9,2,2
		V78.1z"/>
        <path id="XMLID_17_" class="st1" d="M64.4,78.1c0,1.1-0.9,2-2,2H34.6c-1.1,0-2-0.9-2-2V22.9c0-1.1,0.9-2,2-2h27.8c1.1,0,2,0.9,2,2
		V78.1z"/>
</g>
    <g id="XMLID_5_">
	<path id="XMLID_15_" class="st2" d="M61.3,71.2c0,1.1-0.9,2-2,2H38.2c-1.1,0-2-0.9-2-2V29.3c0-1.1,0.9-2,2-2h21.2c1.1,0,2,0.9,2,2
		V71.2z"/>
        <path id="XMLID_14_" class="st1" d="M61.3,71.2c0,1.1-0.9,2-2,2H38.2c-1.1,0-2-0.9-2-2V29.3c0-1.1,0.9-2,2-2h21.2c1.1,0,2,0.9,2,2
		V71.2z"/>
</g>
    <line id="XMLID_6_" class="st1" x1="45" y1="24.5" x2="51" y2="24.5"/>
    <circle id="XMLID_1_" class="st3" cx="49" cy="76.6" r="2"/>
</svg>
