<?xml version="1.0" encoding="utf-8"?>
<!-- Generator: Adobe Illustrator 19.0.0, SVG Export Plug-In . SVG Version: 6.00 Build 0)  -->
<svg xmlns:xlink="http://www.w3.org/1999/xlink" version="1.1" id="Ebene_1" xmlns="http://www.w3.org/2000/svg" x="0px"
     y="0px"
     viewBox="0 0 100 100" style="enable-background:new 0 0 100 100;" xml:space="preserve">
<style type="text/css">
	.st0{fill:#333333;}
	.st1{fill:#FFFFFF;stroke:#000000;stroke-miterlimit:10;}
	.st2{fill:none;stroke:#000000;stroke-miterlimit:10;}
</style>
    <path id="XMLID_4_" class="st0" d="M74.8,78.5H25.2c-2,0-3.7-1.7-3.7-3.7V25.2c0-2,1.7-3.7,3.7-3.7h41.3l12,12v41.3
	C78.5,76.8,76.8,78.5,74.8,78.5z"/>
    <rect id="XMLID_6_" x="29.8" y="43.8" class="st1" width="40.4" height="31.4"/>
    <path id="XMLID_7_" class="st1" d="M62.4,37.6H37.6c-1.5,0-2.7-1.2-2.7-2.7v-8.1c0-1.5,1.2-2.7,2.7-2.7h24.7c1.5,0,2.7,1.2,2.7,2.7
	v8.1C65.1,36.4,63.9,37.6,62.4,37.6z"/>
    <rect id="XMLID_8_" x="56.3" y="26.2" class="st0" width="5.1" height="9.4"/>
    <line id="XMLID_1_" class="st2" x1="38" y1="55.5" x2="63" y2="55.5"/>
    <line id="XMLID_2_" class="st2" x1="38" y1="52.5" x2="63" y2="52.5"/>
    <line id="XMLID_3_" class="st2" x1="38" y1="59.5" x2="63" y2="59.5"/>
    <line id="XMLID_5_" class="st2" x1="38" y1="63.5" x2="63" y2="63.5"/>
</svg>
