<?xml version="1.0" encoding="utf-8"?>
<!-- Generator: Adobe Illustrator 19.0.0, SVG Export Plug-In . SVG Version: 6.00 Build 0)  -->
<svg xmlns:xlink="http://www.w3.org/1999/xlink" version="1.1" id="Ebene_1" xmlns="http://www.w3.org/2000/svg" x="0px"
     y="0px"
     viewBox="0 0 100 100" style="enable-background:new 0 0 100 100;" xml:space="preserve">
<style type="text/css">
	.st0{fill:none;stroke:#591B1B;stroke-width:2;stroke-miterlimit:10;}
	.st1{fill:#FFFFFF;}
	.st2{fill:#FFFFFF;stroke:#992E2F;stroke-width:3;stroke-miterlimit:10;}
</style>
    <path id="XMLID_3_" class="st0" d="M50.2,15.6c19.6,0,35.3,14.9,35.3,34.4S69.6,85.4,50,85.4S15.5,69.6,15.5,50"/>
    <circle id="XMLID_4_" class="st1" cx="50" cy="50" r="35.4"/>
    <path id="XMLID_14_" class="st2" d="M53.4,55.4c-2.3,2.3-5.9,2.3-8.2,0s-2.3-5.9,0-8.2l11.5-3.4L53.4,55.4z"/>
    <line id="XMLID_5_" class="st2" x1="38" y1="78.5" x2="62" y2="78.5"/>
    <line id="XMLID_6_" class="st2" x1="17" y1="50.5" x2="24" y2="50.5"/>
    <line id="XMLID_10_" class="st2" x1="76" y1="50.5" x2="83" y2="50.5"/>
    <line id="XMLID_11_" class="st2" x1="50.5" y1="18" x2="50.5" y2="25"/>
    <line id="XMLID_12_" class="st2" x1="19.2" y1="41.3" x2="25.8" y2="43.7"/>
    <line id="XMLID_13_" class="st2" x1="24.8" y1="31.3" x2="30.2" y2="35.7"/>
    <line id="XMLID_15_" class="st2" x1="32.8" y1="23.5" x2="36.2" y2="29.5"/>
    <line id="XMLID_16_" class="st2" x1="41.9" y1="19.1" x2="43.1" y2="25.9"/>
    <line id="XMLID_17_" class="st2" x1="60.7" y1="19.2" x2="58.3" y2="25.8"/>
    <line id="XMLID_18_" class="st2" x1="68.2" y1="23.5" x2="64.8" y2="29.5"/>
    <line id="XMLID_19_" class="st2" x1="75.2" y1="31.3" x2="69.8" y2="35.7"/>
    <line id="XMLID_20_" class="st2" x1="80.8" y1="41.3" x2="74.2" y2="43.7"/>
</svg>
