<?xml version="1.0" encoding="utf-8"?>
<!-- Generator: Adobe Illustrator 19.0.0, SVG Export Plug-In . SVG Version: 6.00 Build 0)  -->
<svg xmlns:xlink="http://www.w3.org/1999/xlink" version="1.1" id="Ebene_1" xmlns="http://www.w3.org/2000/svg" x="0px"
     y="0px"
     viewBox="0 0 100 100" style="enable-background:new 0 0 100 100;" xml:space="preserve">
<style type="text/css">
	.st0{fill:#FFFFFF;stroke:#FFFFFF;stroke-miterlimit:10;}
	.st1{fill:#FFFFFF;}
	.st2{fill:none;stroke:#515151;stroke-width:0.5;stroke-miterlimit:10;}
</style>
    <line id="XMLID_12_" class="st0" x1="49.5" y1="22" x2="49.5" y2="22"/>
    <line id="XMLID_6_" class="st0" x1="6.5" y1="22" x2="6.5" y2="22"/>
    <path id="XMLID_18_" class="st1" d="M49,22c0,0,0,63.1,0,64.6c0-9.6-28.1-10.9-37-4.5c-1.7,1.2-3,2.7-3,4.5V22C9,10.9,49,10.5,49,22
	z"/>
    <g id="XMLID_2_">
	
		<image style="overflow:visible;opacity:0.5;" width="58" height="28" id="XMLID_34_"
               xlink:href="A15341B7DDC265A2.png" transform="matrix(1 0 0 1 5 73)">
	</image>
        <g id="XMLID_25_">
		<path id="XMLID_32_" class="st2" d="M48.7,86.5c0-9.6-27.8-10.8-36.8-4.4c-1.7,1.2-2.7,2.7-2.7,4.5"/>
	</g>
</g>
    <line id="XMLID_10_" class="st0" x1="93.5" y1="22" x2="93.5" y2="22"/>
    <line id="XMLID_9_" class="st0" x1="50.5" y1="22" x2="50.5" y2="22"/>
    <path id="XMLID_16_" class="st1" d="M93,22c0,0,0,63.1,0,64.6c0-9.6-28.1-10.9-37-4.5c-1.7,1.2-3,2.7-3,4.5V22
	C53,10.9,93,10.5,93,22z"/>
    <g id="XMLID_3_">
	
		<image style="overflow:visible;opacity:0.5;" width="58" height="28" id="XMLID_30_"
               xlink:href="A15341B7DDC265AD.png" transform="matrix(1 0 0 1 49 73)">
	</image>
        <g id="XMLID_23_">
		<path id="XMLID_28_" class="st2" d="M92.7,86.5c0-9.6-27.8-10.8-36.8-4.4c-1.7,1.2-2.7,2.7-2.7,4.5"/>
	</g>
</g>
</svg>
