<?xml version="1.0" encoding="utf-8"?>
<!-- Generator: Adobe Illustrator 19.0.0, SVG Export Plug-In . SVG Version: 6.00 Build 0)  -->
<svg xmlns:xlink="http://www.w3.org/1999/xlink" version="1.1" id="Layer_1" xmlns="http://www.w3.org/2000/svg" x="0px"
     y="0px"
     viewBox="0 0 100 100" style="enable-background:new 0 0 100 100;" xml:space="preserve">
<style type="text/css">
	.st0{fill:#982E2E;}
	.st1{fill:none;stroke:#FFFFFF;stroke-width:5;stroke-miterlimit:10;}
</style>
    <path class="st0" d="M84.1,75.5c0,3.4-3,6.1-6.7,6.1H27.3c-3.7,0-6.7-2.7-6.7-6.1v-51c0-3.4,3-6.1,6.7-6.1h50.1
	c3.7,0,6.7,2.7,6.7,6.1V75.5z"/>
    <g>
	<circle class="st1" cx="51.8" cy="50.3" r="11.3"/>
        <g>
		<circle class="st1" cx="67.7" cy="35.4" r="0.5"/>
	</g>
</g>
    <path class="st1" d="M77.4,67.8c0,4-3.2,7.2-7.2,7.2H34.6c-4,0-7.2-3.2-7.2-7.2V32.2c0-4,3.2-7.2,9.2-7.2h35.6c2,0,5.2,3.2,5.2,7.2
	V67.8z"/>
</svg>
