<?xml version="1.0" encoding="utf-8"?>
<!-- Generator: Adobe Illustrator 19.0.0, SVG Export Plug-In . SVG Version: 6.00 Build 0)  -->
<svg xmlns:xlink="http://www.w3.org/1999/xlink" version="1.1" id="Layer_1" xmlns="http://www.w3.org/2000/svg" x="0px"
     y="0px"
     viewBox="0 0 470.5 612.3" style="enable-background:new 0 0 470.5 612.3;" xml:space="preserve">
<style type="text/css">
	.st0{fill:#434443;}
	.st1{fill:none;stroke:#FFFFFF;stroke-width:7;stroke-miterlimit:10;}
</style>
    <g>
	<path class="st0" d="M283.3,344.6c0,5.1-4.5,9.3-10,9.3h-75c-5.5,0-10-4.2-10-9.3v-77.8c0-5.1,4.5-9.3,10-9.3h75
		c5.5,0,10,4.2,10,9.3V344.6z"/>
        <path class="st1" d="M266.5,330.6c0,5-4,9-9,9H213c-5,0-9-4-9-9v-44.4c0-5,4-9,9-9h44.5c5,0,9,4,9,9V330.6z"/>
        <circle class="st1" cx="235.3" cy="308.3" r="14.1"/>
        <g>
		<circle class="st1" cx="255.2" cy="289.8" r="0.6"/>
	</g>
</g>
</svg>
