<?xml version="1.0" encoding="utf-8"?>
<!-- Generator: Adobe Illustrator 19.0.0, SVG Export Plug-In . SVG Version: 6.00 Build 0)  -->
<svg xmlns:xlink="http://www.w3.org/1999/xlink" version="1.1" id="Ebene_1" xmlns="http://www.w3.org/2000/svg" x="0px"
     y="0px"
     viewBox="71 231 100 100" style="enable-background:new 71 231 100 100;" xml:space="preserve">
<style type="text/css">
	.st0{fill:#992E2F;}
	.st1{fill:#FFFFFF;}
</style>
    <path class="st0" d="M152.7,306.5c0,3.4-3,6.1-6.7,6.1H96c-3.7,0-6.7-2.7-6.7-6.1v-51c0-3.4,3-6.1,6.7-6.1H146
	c3.7,0,6.7,2.7,6.7,6.1V306.5z"/>
    <g transform="translate(0 -602.36)">
	<g transform="scale(1.0018 .99818)">
		<path class="st1" d="M120.4,877v2.2h-0.3c-5,0-10.1-2.6-15.4-7.9c-0.6,1-0.8,1.9-0.8,2.8v1.7c0,1.7,1,3.6,3.1,5.6h-0.6
			c-0.1,0-1-0.3-2.8-0.8v0.3c0,2.9,1.8,5.2,5.4,7h0.6v0.3l-2,0.3l-0.6-0.3c0,0.2-0.1,0.3-0.3,0.3c0-0.2-0.1-0.3-0.3-0.3v0.3
			c1.7,3.4,4.1,5.1,7.1,5.1c-2.5,2.2-6.1,3.4-10.7,3.4v0.3c3.8,1.9,7,2.8,9.6,2.8h3.4c8,0,14.3-4.7,18.8-14.1c0.7-2.9,1.1-5,1.1-6.5
			v-2c2.4-2.2,3.7-3.5,3.7-4h-0.3c-1.4,0.6-2.5,0.8-3.4,0.8c1.9-1.9,2.8-3.2,2.8-4c-2.4,1.1-4.1,1.7-5.1,1.7c0-0.7-1.3-1.4-3.9-2.3
			h-2.3C123.6,869.9,121.3,872.3,120.4,877L120.4,877z"/>
	</g>
</g>
</svg>
