<?xml version="1.0" encoding="utf-8"?>
<!-- Generator: Adobe Illustrator 19.0.0, SVG Export Plug-In . SVG Version: 6.00 Build 0)  -->
<svg xmlns:xlink="http://www.w3.org/1999/xlink" version="1.1" id="Ebene_1" xmlns="http://www.w3.org/2000/svg" x="0px"
     y="0px"
     viewBox="-179 56 600 450" style="enable-background:new -179 56 600 450;" xml:space="preserve">
<style type="text/css">
	.st0{fill:#434343;}
	.st1{fill:#FFFFFF;}
</style>
    <path class="st0" d="M323.4,438.1c0,20.7-18.4,37.6-41.1,37.6H-26.6c-22.7,0-41.1-16.8-41.1-37.6V123.7c0-20.7,18.4-37.6,41.1-37.6
	h308.9c22.7,0,41.1,16.8,41.1,37.6V438.1z"/>
    <g transform="translate(0 -602.36)">
	<g transform="scale(1.0018 .99818)">
		<path class="st1" d="M125.1,835.5v13.7h-1.8c-30.8,0-62.6-16.2-95.2-48.5c-3.5,5.9-5.2,11.7-5.2,17.3v10.5
			c0,10.6,6.4,22.2,19.1,34.6h-3.6c-0.6,0-6.4-1.7-17.3-5.2v1.8c0,17.8,11,32.2,33,43.3h3.4v1.8l-12.1,1.8l-3.4-1.8
			c0,1.2-0.6,1.8-1.8,1.8c0-1.2-0.6-1.8-1.8-1.8v1.8c10.5,20.8,25,31.2,43.5,31.2c-15.3,13.8-37.4,20.7-66.1,20.7v1.8
			c23.5,11.5,43.2,17.3,59,17.3h21c49.2,0,87.9-28.9,116.2-86.8c4.6-17.8,6.8-31.1,6.8-39.9v-12.1c15-13.7,22.6-21.8,22.6-24.4h-1.6
			c-8.5,3.5-15.5,5.2-21,5.2c11.5-11.7,17.3-19.8,17.3-24.4c-14.6,7-25,10.5-31.2,10.5c0-4.3-8-8.9-24.1-13.9h-13.9
			C144.9,792,131,806.5,125.1,835.5L125.1,835.5z"/>
	</g>
</g>
</svg>
