<?xml version="1.0" encoding="utf-8"?>
<!-- Generator: Adobe Illustrator 19.0.0, SVG Export Plug-In . SVG Version: 6.00 Build 0)  -->
<svg xmlns:xlink="http://www.w3.org/1999/xlink" version="1.1" id="Ebene_1" xmlns="http://www.w3.org/2000/svg" x="0px"
     y="0px"
     viewBox="-252 -56 615 814" style="enable-background:new -252 -56 615 814;" xml:space="preserve">
<style type="text/css">
	.st0{opacity:0.4;}
	.st1{fill:#7C7C7C;}
	.st2{opacity:0.8;}
	.st3{fill:#6B6B6B;}
	.st4{fill:#AA0536;}
	.st5{fill:#FFFFFF;}
	.st6{font-family:'SourceSansPro-ExtraLight';}
	.st7{font-size:23px;}
	.st8{fill:none;stroke:#FFFFFF;stroke-miterlimit:10;}
	.st9{font-size:96.8908px;}
</style>
    <g id="XMLID_324_" class="st0">
	
		<image style="overflow:visible;opacity:0.75;enable-background:new    ;" width="141" height="123" id="XMLID_417_"
               xlink:href="4AC3827ED131270A.png" transform="matrix(4.489659e-11 1 -1 4.489659e-11 252.0405 428.9608)">
	</image>
        <g id="XMLID_407_">
		<path id="XMLID_416_" class="st1" d="M166.1,481.7c-0.1-0.1,0.4-3.7-3.9-4.4c-0.9,0.2-3.6,1.2-6.1,2.2c-2.8,0.9-4.1-1.2-4.1-5.9
			V444c0-4.1,3.1-6.6,7.1-6.6l26.6,0.1c5.4-0.5,12.9,0.3,9.4,5.8l-0.8,4c0.4,4.5,0.2,5.8,4.3,7.9l4.7,0.4c5.3-0.4,10-2.2,8.8-6.5
			l-1.6-4.6c-0.2-3.2,1.2-6.2,5.1-6.8h19.3c4.1,0,8,3.4,8,7.5v77c0,4.1-3.1,7.4-7.1,7.4h-18c-5.5,0-7.8,3.8-5.3,8.6
			c2.6,4.7,0.2,9.1-5.2,9.6l-0.8,0.1c-5.5,0.6-8.4-3.2-6.5-8.3l0.3-0.7c1.9-5.2-1-9.4-6.5-9.3l-34.6,0.1c-4.1,0-7.2-3.3-7.2-7.4
			v-22.7c0-4.5-1.6-8,2.9-7.3c1.9,0.7,4.9,1.4,6.8,1.5c2.1-0.4,3.8-0.5,4.6-4.3"/>
	</g>
</g>
    <g id="XMLID_284_" class="st0">
	
		<image style="overflow:visible;opacity:0.75;enable-background:new    ;" width="122" height="140" id="XMLID_412_"
               xlink:href="4AC3827ED131270E.png" transform="matrix(4.489659e-11 1 -1 4.489659e-11 363.0404 534.9609)">
	</image>
        <g id="XMLID_405_">
		<path id="XMLID_411_" class="st1" d="M245.4,627.4l0.1-26.7c-0.5-5.4,1.4-11.9,5.8-9.4l2.3,1.1c4.1,3.4,8.3,0,9.6-4.6l0.4-4.7
			c-0.8-8.1-2-7.8-6.5-8.8l-4.6,1.6c-3.2,0.2-6.2-1.2-6.8-5.2v-19.5c0-4.1,3.4-8.2,7.5-8.2H330c4.1,0,7.4,3.3,7.4,7.4v18.1
			c0,5.5,3.8,7.9,8.6,5.3c4.7-2.6,8.7-0.2,8.8,5.3l0.1,4c0.1,5.5-3.6,7.7-8.4,4.9l-0.6-0.3c-4.7-2.8-8.6-0.6-8.6,4.9l0.1,34.9
			c0,4.1-3.3,7.5-7.4,7.5h-20.2c-4.5,0-5.6-4.5-3.9-7.5l1.9-3.6c1.1-3.4,0.5-7.8-8.6-7.1l-4.2,0.3l-2.5,0.7c-0.6,0.5-2,2.1-1.1,5.9
			c0.8,1.4,1.9,3.2,2.4,4.1c3.9,9-7.7,6.7-12.3,6.7l-29.6,0.1C247.9,634.7,245.4,631.5,245.4,627.4z"/>
	</g>
</g>
    <g id="XMLID_286_" class="st0">
	
		<image style="overflow:visible;opacity:0.75;enable-background:new    ;" width="137" height="123" id="XMLID_414_"
               xlink:href="4AC3827ED1312709.png" transform="matrix(4.489659e-11 1 -1 4.489659e-11 156.0405 228.9609)">
	</image>
        <g id="XMLID_406_">
		<path id="XMLID_413_" class="st1" d="M147,278.6l0.1-19.5c0-4.1-3.4-8.2-7.5-8.2l-24.6-0.3c-5.5-0.1-8.2-3.1-5.9-6.8
			s0.2-6.6-4.5-6.5s-6.8,3.1-4.6,6.7c2.2,3.6-0.5,6.5-6,6.6l-31.3,0.3c-4.1,0-7.4,3.3-7.4,7.4v18.1c0,5.5,0,7.7,0.1,4.8
			c0-2.8,0-3.4,0-1.2c0,2.2,0,5.4,0,7.3c0,1.8,0,7.8,0,13.3l-0.1,34.9c0,4.1,3.3,7.5,7.4,7.5h22.7c4.8,0,9.6,1.5,9.9-4.1L94,333
			c0.3-2.9,3.9-5.9,8.2-4.9l0.8,0.2c0,0,1.8,0.7,1.9,0.7c0.1,0.1,1.3,1.1,1.7,3.7c-0.6,1.9-1.7,5.1-2.4,6.9c0.2,3.7,2.3,3.5,7,3.5
			h29.5c4.1,0,6.6-3.4,6.6-7.4l-0.1-26.8c-0.1-5.1-0.1-4.8-0.1-10.8v-5.8c0-1.7,0,0.1,0-1.7V283"/>
	</g>
</g>
    <g id="XMLID_287_" class="st0">
	
		<image style="overflow:visible;opacity:0.75;enable-background:new    ;" width="123" height="122" id="XMLID_404_"
               xlink:href="4AC3827ED131270B.png" transform="matrix(4.489659e-11 1 -1 4.489659e-11 342.0404 328.9608)">
	</image>
        <g id="XMLID_397_">
		<path id="XMLID_403_" class="st1" d="M294.4,429.2l-44.9,0.1c-4.1,0-7.5-3.3-7.5-7.4v-20.2c1-3.2,4.4-4.1,7.2-3.1l4.7,0.5
			c3.7-0.8,4.6-0.8,4.4-8.2l-0.6-4.1l-0.3-1c-0.5-0.6-1.8-3.2-4.4-2.2c-1.2,0.6-3.9,1.4-6.1,1.8c-6,0.6-4.7-7.2-4.7-11.9l0.1-29.7
			c0-4.1,3.2-6.6,7.3-6.6l26.7,0.1c5.4-0.5,11.9,1.4,9.4,5.8l-1.1,2.3c-3.4,4.1,0,8.3,4.6,9.6l4.7,0.4c8.1-0.8,7.9-2.8,8.4-6.3
			c0.2-1.2-1.9-6.3-1.9-6.3c-0.1-1.7,1.8-5.5,6-5.2h19.5c4.1,0,8.2,3.4,8.2,7.5v77c0,4.1-3.3,7.4-7.4,7.4"/>
	</g>
</g>
    <g id="XMLID_288_" class="st0">
	
		<image style="overflow:visible;opacity:0.75;enable-background:new    ;" width="157" height="123" id="XMLID_396_"
               xlink:href="4AC3827ED1312708.png" transform="matrix(4.489659e-11 1 -1 4.489659e-11 345.0404 219.9609)">
	</image>
        <g id="XMLID_354_">
		<path id="XMLID_395_" class="st1" d="M336,299v27c0,5.5-4.4,10-9.9,10h-19.6c-2.8,0-8.5,3.8-5.5,8.4l0,0c1,3.7,1.9,8.7-2,9.9l0,0
			c-2.6,0.9-7,1-9.6,0.2l0,0c-3.8-1.3-5-2.1-5-6.3l2.3-4.5c1.2-3.7-3.3-7.5-7.2-7.5h-25c-5.5,0-10.5-4.5-10.5-10v-30.8
			c0-5.5,0-12.2,0-14.8s0-9.3,0-14.8v-14.9c0-3.4,3.3-6.7,6.7-6.7h23.4c5.5,0,8.4-3.3,6.4-7.6s0.9-7.7,6.4-7.6l4.3,0.1
			c5.5,0,8,3.4,5.5,7.6s0,7.5,5.5,7.5h23.9c5.5,0,9.9,4.9,9.9,10.4V272c0,4.2,0,0.2,0,9.4"/>
	</g>
</g>
    <g id="XMLID_289_" class="st2">
	
		<image style="overflow:visible;opacity:0.75;enable-background:new    ;" width="138" height="123" id="XMLID_422_"
               xlink:href="4AC3827ED1312716.png" transform="matrix(4.489659e-11 1 -1 4.489659e-11 158.0405 319.9608)">
	</image>
        <g id="XMLID_400_">
		<path id="XMLID_421_" class="st3" d="M137.8,378.8c-2.3-0.1-3.3,0.8-4.7,4.1l-0.7,3.3c0,0.1,0,1.2,0,1.3c-0.5,4.8,1.6,9,6.8,8.8
			c0.3,0,0.9,0.1,1.1,0h0.4c0.7,0,1.4-0.4,2-0.7c2.9-1.2,6.2-3.5,6.2-0.8c0,1.6,0,0,0,1.6l0.2,31.8c0,3.8-3.1,6.9-6.9,6.9l-30.8,0.3
			c-2,0.4-6-1.9-5.1-6.3c0-0.1,0-0.5,0-0.6l0,0c-0.1-2.9-0.2-5.3-0.2-5.3s-0.1-0.7-0.1-1.4c0,0,0,0-0.2-0.5
			c-0.3-0.9-0.7-1.6-1.2-2.2c-1.3-1.3-3.3-1.7-5.9-1.8l-3.2-0.2c-4.7-0.1-8.1,3.1-6.7,7.5c0,0.1,0.1,0.2,0.1,0.3l1.7,3.7
			c0.2,0.3,0.2,0.7,0.2,1.1c-0.5,3.3-0.1,2.3-2.9,4.8c-0.4,0.3-0.8,0.4-1.3,0.4H62.2c-2.6,0-4.2-1.9-4.2-4.5v-78.2
			c0-4.9,3.7-8.8,8.6-8.8h21.7c5.5,0,8.3-3.4,6.3-7.6s0.7-7.7,6-7.9c5.3-0.2,7.4,3.2,4.6,7.6s-0.5,7.9,5,7.9h29.7
			c4.8-0.7,9.4,4.4,9.2,7.8v28.3c-0.8,2.6-8.5-0.1-8.4-0.2"/>
	</g>
</g>
    <g id="XMLID_290_" class="st2">
</g>
    <g id="XMLID_291_" class="st2">
	<path id="XMLID_335_" class="st4" d="M192.6,344.1"/>
</g>
    <g id="XMLID_292_" class="st2">
	
		<image style="overflow:visible;opacity:0.75;enable-background:new    ;" width="123" height="123" id="XMLID_415_"
               xlink:href="4AC3827ED1312719.png" transform="matrix(4.489659e-11 1 -1 4.489659e-11 248.0405 54.9609)">
	</image>
        <g id="XMLID_383_">
		<path id="XMLID_408_" class="st3" d="M239.7,91.4V71.5c0-4.1-3.5-8.5-7.5-8.5h-77c-4.1,0-7.4,3.5-7.4,7.6v18.2
			c0,5.5,0,7.7,0.1,4.9c0-2.8,0-3.4,0-1.2c0,2.2,0,5.4,0,7.3c0,1.8,0,7.8,0,13.3l-0.1,34.7c0,4.1,3.3,7.4,7.4,7.4l25.1,0.1
			c4.5,0,6.2-2,4.3-5.2c-0.7-1-1.6-2.7-1.9-3.8c-0.6-3.9,2.3-5.7,6.2-6.5l6.7,0.5l0,0c0.1,0.1,6.5-0.3,6.1,5.2
			c-0.2,1.8-1.1,4.6-2.1,6.3c-1,2.3-0.6,3.2,4.1,3.2h29.5c4.1,0,6.6-3.2,6.6-7.2l0.1-26.6c-0.1-5.1,0.1-4.7,0.1-10.7v-5.8
			c0-1.7,0,0.1,0-1.7v-7"/>
	</g>
</g>
    <g id="XMLID_293_" class="st2">
	
		<image style="overflow:visible;opacity:0.75;enable-background:new    ;" width="123" height="141" id="XMLID_424_"
               xlink:href="4AC3827ED131271A.png" transform="matrix(4.489659e-11 1 -1 4.489659e-11 270.0404 521.9609)">
	</image>
        <g id="XMLID_402_">
		<path id="XMLID_423_" class="st3" d="M152,537.9l0.1,26.7c-0.5,5.4,1,9.4,5.8,9.4l4-0.2c4.7-0.4,5.8-0.4,7.9,3.7l0.4,4.7
			c0.9,5-2.2,10-6.5,8.8l-4.6-1.6c-3.2-0.2-6.2,1.2-6.8,5.2V614c0,4.1,3.4,8,7.5,8h77c4.1,0,7.4-3.1,7.4-7.2v-18
			c0-5.5,3.8-7.9,8.6-5.3s8.7,0.2,8.8-5.3l0.1-4c0.1-5.5-3.6-7.7-8.4-4.9l-0.6,0.3c-4.7,2.8-8.6,0.6-8.6-4.9l0.1-34.5
			c0-4.1-3.3-7.2-7.4-7.2h-20.2c-4.5,0-4.9,4.1-3.2,7.2l0.8,4.4c-0.9,4.3-2.7,5.5-8.2,5.5l-2.9-0.4c0,0-2.4-1-2.4-1.1
			c-0.6-0.5-2-1.4-1.8-4.5c0.3-1.7,0.9-4.1,1.3-5.5c0.5-9-7.3-5.9-12-5.9l-29.6-0.1C154.6,530.6,152,533.8,152,537.9z"/>
	</g>
</g>
    <text id="XMLID_294_" transform="matrix(1 0 0 1 181.735 586.041)" class="st5 st6 st7">CSS</text>
    <g id="XMLID_295_" class="st2">
	
		<image style="overflow:visible;opacity:0.75;enable-background:new    ;" width="141" height="123" id="XMLID_392_"
               xlink:href="4AC3827ED1312718.png" transform="matrix(4.489659e-11 1 -1 4.489659e-11 350.0404 608.9609)">
	</image>
        <g id="XMLID_376_">
		<path id="XMLID_390_" class="st3" d="M249,673v-27.1c0-5.5,5-9.9,10.5-9.9h25.4c4.3,0,13.1-0.8,9.1-8.4l0,0
			c-2-3.7-4.2-9.4-0.1-9.7l4.9-0.3c4.1-0.3,10.4,1.6,9.1,5.5l-3.1,5.4c-1.2,3.7,1.6,7.6,5.5,7.6h20.8c5.5,0,9.9,4.4,9.9,9.9v30.8
			c0,5.5,0,12.2,0,14.8s0,9.3,0,14.8v14.9c0,3.4-2.7,5.8-6.1,5.8h-15.4c-5.5,0-13.2,0-17.1,0c-3.9,0-11.6,0-17.1,0h-25.8
			c-5.5,0-10.5-4-10.5-9.5v-17.4c0-4.2,0-0.2,0-9.4"/>
	</g>
</g>
    <text id="XMLID_296_" transform="matrix(1 0 0 1 270.7811 688.0834)" class="st5 st6 st7">SASS</text>
    <text id="XMLID_297_" transform="matrix(1 0 0 1 159.0418 107.634)" class="st5 st6 st7">Laravel</text>
    <text id="XMLID_298_" transform="matrix(1 0 0 1 89.377 391.4347)" class="st5 st6 st7">JS</text>
    <g id="XMLID_299_" class="st2">
	
		<image style="overflow:visible;opacity:0.75;enable-background:new    ;" width="141" height="155" id="XMLID_410_"
               xlink:href="CE41DC543C1AA4CD.png" transform="matrix(4.489659e-11 1 -1 4.489659e-11 266.0404 336.9608)">
	</image>
        <g id="XMLID_380_">
		<path id="XMLID_409_" class="st3" d="M203.6,345.2l30.8-0.1c3.7,0,6.9,2.2,6.9,5.9l-0.4,29.8c0,4.3,3.1,7.9,6.8,7l3.2-1
			c3.7-1.9,6.4-0.2,6.7,3.9l0.3,4.8c0.3,4.1-2.5,5.9-6.5,5.5l-4.1-0.9c-2.2-1-6.4,1.6-6.4,6V427c0,5.5-4.6,10-10.1,10H217
			c-5.5,0-8.4,3.7-6.5,8.3c1.9,4.5-0.7,8.9-6,9.6s-9.3-1.7-9.1-5.5s0.7-8.2,1-9.6s-4-2.7-9.5-2.7h-31.6c-3.4,0-6.2-2.8-6.2-6.2
			c0,0-0.2,0.2,0-35.4c0-5.2-6.3,0.2-8.8,0.5c-0.9,0.1-0.9,0.1-0.9,0.1c-1.4,0.3-3.6-0.3-4.8-1.4s-1.9-4.8-1.5-8.4s2.3-6.6,4.2-6.6
			s4.1,0.2,5.1,0.6c0.9,0.3,2.8,0.8,4.2,1.2c1.4,0.3,2.3,0,2.4-0.7c0-0.7-0.1-5.8-0.1-11.3v-14c0-5.5,4.8-10.4,10.3-10.4H177"/>
	</g>
</g>
    <g id="XMLID_300_" class="st2">
	
		<image style="overflow:visible;opacity:0.75;enable-background:new    ;" width="123" height="140" id="XMLID_426_"
               xlink:href="CE41DC543C1AA4C3.png" transform="matrix(4.489659e-11 1 -1 4.489659e-11 175.0405 147.9609)">
	</image>
        <g id="XMLID_387_">
		<path id="XMLID_425_" class="st3" d="M57.5,165.2c0-4.1,3.4-8.2,7.5-8.2h24.2c5.5,0,7.4,0,4.2,0s-1.3,0,4.2,0h1.5
			c5.5,0,7.9,0,5.3,0s-0.2,0,5.3,0H142c4.1,0,7.4,3.3,7.4,7.4l-0.1,34.1c0,5.5,4,8.3,8.9,6.1c4.9-2.1,8.9,0.6,8.8,6
			c-0.1,5.4-4.2,8.5-9,6.8s-8.9,1.5-8.9,7v17c0,4.1-3.1,7.7-7.1,7.7h-22.7c-5.4,0-11.4,0.6-10.7-3.9l1.9-5c-0.9-3.1-1.3-3.5-4.6-4.2
			l-4.2,0.4l-1.6,0.9c-0.1,0.1-1.1,1.1-1.5,3.7c0.3,1.4,1.1,3.5,1.9,4.5c-0.2,3.7-2.3,3.4-7,3.4H64c-4.1,0-6.6-3.4-6.6-7.4"/>
	</g>
</g>
    <g id="XMLID_301_" class="st2">
	
		<image style="overflow:visible;opacity:0.75;enable-background:new    ;" width="123" height="139" id="XMLID_420_"
               xlink:href="CE41DC543C1AA4C5.png" transform="matrix(4.489659e-11 1 -1 4.489659e-11 347.0404 141.9609)">
	</image>
        <g id="XMLID_384_">
		<path id="XMLID_419_" class="st3" d="M338.1,158.8c0-4.1-3.4-8.2-7.5-8.2h-3.1c-5.5,0-12.2,0.2-14.8,0.2s-9.3,0.2-14.8,0.2h-1.5
			c-5.5,0-7.9,0-5.3,0s0.2,0-5.3,0h-32.3c-4.1,0-7.4,3.1-7.4,7.2v27.9c0,5.5-3.8,8.3-8.5,6.4c-4.7-2-8.1,0.9-7.6,6.4l0.3,2.8
			c0.5,5.5,4.3,7.4,8.4,4.3c4.1-3.1,7.5-1.2,7.5,4.3l-0.1,24.6c0,4.1,3.3,7.2,7.4,7.2h22.7c4.8,1,4.6-1.7,3.9-4.9l-0.7-4.5
			c1.9-4.6,7.5-4.1,12.2-4l3.2,0.5c-0.2-0.1,3.8,1.1,3.1,4c-0.7,2.8-0.4,1.7-0.7,2.8c-0.4,0.7-1.1,2.2-1.6,3.5
			c0.2,3.7,1.8,2.7,6.4,2.7h29.7c4.1,0,6.6-3.1,6.6-7.1"/>
	</g>
</g>
    <text id="XMLID_302_" transform="matrix(1 0 0 1 260.7912 199.4644)" class="st5 st6 st7">MySQL</text>
    <text id="XMLID_303_" transform="matrix(1 0 0 1 81.9627 208.1353)" class="st5 st6 st7">PHP</text>
    <g id="XMLID_304_" class="st2">
	
		<image style="overflow:visible;opacity:0.75;enable-background:new    ;" width="139" height="122" id="XMLID_379_"
               xlink:href="CE41DC543C1AA4C7.png" transform="matrix(4.489659e-11 1 -1 4.489659e-11 251.0405 131.9609)">
	</image>
        <g id="XMLID_371_">
		<path id="XMLID_378_" class="st3" d="M203.4,248.7l-44.9,0.1c-4.1,0-7.5-3.3-7.5-7.4v-20.2c1-3.2,4.3-3.8,7.1-2.8
			c1.2,0.1,3.3,0.1,4.5-0.1c3.8-2.2,4.4-3.5,4.6-7.9l-0.7-3.7c0,0-0.1-0.1-0.4-1c-0.3-0.7-1.3-1.3-4-2c-1.3,0-4.1,0.5-6.2,1.2
			c-6,0.6-4.7-7.2-4.7-11.9l0.1-29.7c0-4.1,3.2-6.6,7.3-6.6l26.7,0.1c6.5-0.1-4.1-9.9-1-13.5c0.7-1,2.3-2.2,3.4-2.6
			c4.7-0.4,1.7-0.4,4.8-0.2l5.9,1.1c6,3.9-3.6,15.2-1.6,15.2c1.2,0,28.4,0,28.4,0c-0.1,0-4.3,0,0,0l9.6,0.1c4.1,0,8.2,3.4,8.2,7.5
			V186c0,5.5-3,8.8-6.7,7.4s-6.6,1.9-6.5,7.4l0.1,2.7c0.1,5.5,3.1,8.1,6.7,5.9c3.5-2.3,6.4,0.4,6.4,5.9v26.2c0,4.1-3.3,7.4-7.4,7.4"
        />
	</g>
</g>
    <g id="XMLID_305_">
	<g id="XMLID_306_">
		<polygon id="XMLID_307_" class="st8" points="191.6,192.4 212.6,180.3 212.6,216.5 191.6,228.6 		"/>
        <g id="XMLID_308_">
			<path id="XMLID_309_" class="st8"
                  d="M175.6,183.3v36.2c3,4.5,11,9,16,9v-36.2C186.6,192.4,178.6,187.9,175.6,183.3z"/>
            <path id="XMLID_310_" class="st8" d="M189.5,198.2c-4.7-1-9.2-3.6-12.4-7.2"/>
		</g>
        <g id="XMLID_311_">
			<path id="XMLID_312_" class="st8" d="M179.4,207.9c0.9,0,1.6,0.8,1.6,1.8s-0.7,1.8-1.6,1.8c-0.9,0-1.6-0.8-1.6-1.8
				C177.9,208.7,178.6,207.9,179.4,207.9z"/>
            <path id="XMLID_313_" class="st8" d="M179.4,213.6c0.8,0,1.5,0.8,1.5,1.8s-0.7,1.8-1.5,1.8s-1.5-0.8-1.5-1.8
				C177.9,214.3,178.5,213.6,179.4,213.6L179.4,213.6z"/>
		</g>
        <g id="XMLID_314_">
			<g id="XMLID_315_">
				<path id="XMLID_316_" class="st8" d="M189.8,202.5c-4.7-1-9.2-3.6-12.4-7.2"/>
                <path id="XMLID_317_" class="st8"
                      d="M191.6,192.4c-5.2,0-13.1-4.5-15.7-9l20.9-12.1l15.7,9L191.6,192.4z"/>
			</g>
            <path id="XMLID_318_" class="st8"
                  d="M196.7,171.3l-21.1,12.1v36.2c3,4.5,10.7,9,15.9,9l21.1-12.1v-36.2L196.7,171.3z"/>
		</g>
	</g>
</g>
    <text id="XMLID_319_" transform="matrix(1 0 0 1 168.1996 399.7025)" class="st5 st6 st7">HTML</text>
    <g id="XMLID_320_" class="st0">
	
		<image style="overflow:visible;opacity:0.75;enable-background:new    ;" width="160" height="157" id="XMLID_377_"
               xlink:href="CE41DC543C1AA4C4.png" transform="matrix(4.489659e-11 1 -1 4.489659e-11 175.0405 409.9608)">
	</image>
        <g id="XMLID_346_">
		<path id="XMLID_373_" class="st1" d="M142.9,436.9c3.7,0,6.9,2.2,6.9,5.9l-0.3,29.8c0,4.3,3,8.9,6.8,7l3.2-1
			c3.7-1.9,6.4-0.2,6.7,3.9l0.3,4.8c0.3,4.1-3.6,7.1-7.5,5.9l-3.3-1.7c-3.7-1.2-6.7,2.6-6.7,6.5v20.8c0,5.5-4,10.3-9.5,10.3h-19.7
			c-5.5,0-8,3.6-5.6,8.1s-0.1,8.9-5.5,9.7l-3.4,0.5c-5.4,0.8-9.4-3-8.9-8.4v-0.1c0.5-5.5-3.5-9.8-9-9.8H64.1c-3.4,0-6.1-3.1-6.1-6.5
			v-23.7c0-5.5-1.3-9.5-2.8-8.9s-4.3,1.4-6.2,1.8s-4.6,0.3-6.1-0.3c-1.5-0.6-2.5-3.6-2.2-6.8c0.3-3.2,1.7-6,3.3-6.3
			c1.6-0.3,4-0.1,5.5,0.4s4,1.7,5.6,2.7c1.5,1,2.8-2.6,2.8-8.1v-26.1c0-5.5,4.4-10.1,9.9-10.1h17.4c4.2,0,7.8-4.3,6-8.1l-0.8-2.6
			c-1.8-3.9,0.2-7.5,4.5-7.4l6.1,0.2c3.3,0.1,3.3,2.5,5,5.8l-0.2,5.2c-0.6,4.2,2.8,7,6.1,7L142.9,436.9z"/>
	</g>
</g>
    <g id="XMLID_321_" class="st0">
	
		<image style="overflow:visible;opacity:0.75;enable-background:new    ;" width="140" height="122" id="XMLID_360_"
               xlink:href="CE41DC543C1AA4DC.png" transform="matrix(4.489659e-11 1 -1 4.489659e-11 65.0404 429.9608)">
	</image>
        <g id="XMLID_349_">
		<path id="XMLID_356_" class="st1" d="M-7.2,438.3l-19.6,0.1c-4.1,0-8.2,3.5-8.2,7.6v77c0,4.1,3.4,7.4,7.5,7.4h18.1
			c5.5,0,7.9,3.8,5.4,8.6c-2.6,4.7-0.2,8.7,5.3,8.8l4,0.1c5.5,0.1,7.7-3.6,4.9-8.4l-0.3-0.6c-2.8-4.7-0.6-8.6,4.9-8.6l34.8,0.1
			c4.1,0,7.4-3.3,7.4-7.4v-22.7c0-4.5-1.7-8.5-6.2-7.7l-3.8,1.9c-3.9,0.6-6.4-1.3-7.2-5.2l0.5-6.7l0,0c0.1-0.1,1-4.6,6.1-4.4
			c0.9,0.2,2.3,0.8,3.1,1.2c2.6,2.8,7.5-0.3,7.5-4.9V445c0-4.1-3.3-6.6-7.3-6.6L23,438.3c-5.1,0.1-4.8-0.1-10.7-0.1H6.5
			c-1.7,0,0.1,0-1.7,0H-3"/>
	</g>
</g>
    <g id="XMLID_322_" class="st0">
	
		<image style="overflow:visible;opacity:0.75;enable-background:new    ;" width="122" height="123" id="XMLID_362_"
               xlink:href="CE41DC543C1AA4DD.png" transform="matrix(4.489659e-11 1 -1 4.489659e-11 68.0404 523.9609)">
	</image>
        <g id="XMLID_351_">
		<path id="XMLID_361_" class="st1" d="M-31.9,596.2v19.6c0,4.1,3.4,8.2,7.5,8.2h77c4.1,0,7.4-3.4,7.4-7.5v-18.1
			c0-5.5,0-7.7-0.1-4.9c0,2.8,0,3.4,0,1.2s0-5.4,0-7.3c0-1.8,0-7.8,0-13.3l0.1-34.7c0-4.1-3.3-7.4-7.4-7.4l-25.1-0.1
			c-4.5,0-10.8,0-17.2,0c0,0,0.8,1.3,1.6,2.9c1.5,3.2,1.5,10.6-2.4,11.5l-4.2,0.4H3.1c0,0-1.4,0-5.9-1.9c-1.7-2.6-2.1-7.6-0.8-11.1
			c1-2.3-0.5-1.8-5.2-1.8h-16.5c-4.1,0-6.6,3.2-6.6,7.3l0.1,26.7c0.1,5.1,0.1,4.8,0.1,10.7v5.8c0,1.7,0-0.1,0,1.7v7.8"/>
	</g>
</g>
    <text id="XMLID_2_" transform="matrix(1 0 0 1 -229.6721 30.4494)" class="st5 st6 st9">Creative Puzzle</text>
</svg>
